# xmcd
#
# Track frame offsets:
#	150
#	14159
#	29095
#	52986
#	68788
#	97052
#	118783
#	140449
#	155599
#	173249
#
# Disc length: 2725 seconds
#
# Revision: 0
# Processed by: cddbd v1.5.1PL0 Copyright (c) Steve Scherf et al.
# Submitted via: dBpowerAMP V4.0
#
DISCID=910aa30a
DTITLE=Blair Combest - Prettier Than Ugly
DYEAR=1900
DGENRE=
TTITLE0=Every Once in a While
TTITLE1=While Walking
TTITLE2=Diamond
TTITLE3=Dreams
TTITLE4=All That's Left
TTITLE5=Oh Mama
TTITLE6=Simple
TTITLE7=What Does it All Mean
TTITLE8=Smile
TTITLE9=I Know You
EXTD=
EXTT0=
EXTT1=
EXTT2=
EXTT3=
EXTT4=
EXTT5=
EXTT6=
EXTT7=
EXTT8=
EXTT9=
PLAYORDER=
